<svg width="20px" height="20px" viewBox="0 0 20 20" xmlns="http://www.w3.org/2000/svg" xmlns:xlink="http://www.w3.org/1999/xlink" aria-label="Share icon"><g id="Final-UI" stroke="none" stroke-width="1" fill="none" fill-rule="evenodd"><g id="Videobot---Share-button" transform="translate(-374.000000, -182.250000)" fill="#FFFFFF" fill-rule="nonzero"><g id="btn-copy-4" transform="translate(364.000000, 173.000000)"><g id="link---simple-line-icons" transform="translate(10.000000, 9.250000)"><path d="M5.78125,14.296875 C5.83333333,14.3619792 5.8984375,14.4108073 5.9765625,14.4433594 C6.0546875,14.4759115 6.1328125,14.4921875 6.2109375,14.4921875 C6.2890625,14.4921875 6.3671875,14.4759115 6.4453125,14.4433594 C6.5234375,14.4108073 6.59505208,14.3619792 6.66015625,14.296875 L14.2382812,6.6796875 C14.3554688,6.54947917 14.4140625,6.39973958 14.4140625,6.23046875 C14.4140625,6.06119792 14.3554688,5.91796875 14.2382812,5.80078125 C14.1080729,5.67057292 13.9583333,5.60546875 13.7890625,5.60546875 C13.6197917,5.60546875 13.4700521,5.67057292 13.3398438,5.80078125 L5.78125,13.4179688 C5.65104167,13.5481771 5.5859375,13.6979167 5.5859375,13.8671875 C5.5859375,14.0364583 5.65104167,14.1796875 5.78125,14.296875 Z M9.296875,12.96875 C9.40104167,13.4244792 9.39453125,13.8704427 9.27734375,14.3066406 C9.16015625,14.7428385 8.92578125,15.1367188 8.57421875,15.4882812 L6.0546875,17.9296875 C5.78125,18.1901042 5.47526042,18.3919271 5.13671875,18.5351562 C4.79817708,18.6783854 4.44010417,18.75 4.0625,18.75 C3.68489583,18.75 3.32682292,18.6783854 2.98828125,18.5351562 C2.64973958,18.3919271 2.34375,18.1901042 2.0703125,17.9296875 C1.5234375,17.3828125 1.25,16.71875 1.25,15.9375 C1.25,15.15625 1.5234375,14.4986979 2.0703125,13.9648438 L4.53125,11.40625 C4.79166667,11.1458333 5.09440104,10.9440104 5.43945313,10.8007812 C5.78450521,10.6575521 6.14583333,10.5859375 6.5234375,10.5859375 C6.65364583,10.5859375 6.78059896,10.5957031 6.90429688,10.6152344 C7.02799479,10.6347656 7.1484375,10.6640625 7.265625,10.703125 L8.2421875,9.7265625 C7.96875,9.59635417 7.68880208,9.49869792 7.40234375,9.43359375 C7.11588542,9.36848958 6.82291667,9.3359375 6.5234375,9.3359375 C6.00260417,9.3359375 5.49153646,9.43684896 4.99023438,9.63867188 C4.48893229,9.84049479 4.04296875,10.1367188 3.65234375,10.5273438 L1.19140625,13.0664062 C0.787760417,13.4700521 0.48828125,13.9192708 0.29296875,14.4140625 C0.09765625,14.9088542 0,15.4166667 0,15.9375 C0,16.4583333 0.09765625,16.969401 0.29296875,17.4707031 C0.48828125,17.9720052 0.787760417,18.4179688 1.19140625,18.8085938 C1.58203125,19.2122396 2.02799479,19.5117188 2.52929688,19.7070312 C3.03059896,19.9023438 3.54166667,20 4.0625,20 C4.58333333,20 5.09440104,19.9023438 5.59570313,19.7070312 C6.09700521,19.5117188 6.54296875,19.2122396 6.93359375,18.8085938 L9.453125,16.3671875 C10.0651042,15.7682292 10.4361979,15.0748698 10.5664063,14.2871094 C10.6966146,13.499349 10.6054688,12.734375 10.2929688,11.9921875 L9.296875,12.96875 Z M18.8085938,1.19140625 C18.4179688,0.787760417 17.9720052,0.48828125 17.4707031,0.29296875 C16.969401,0.09765625 16.4583333,0 15.9375,0 C15.4166667,0 14.905599,0.09765625 14.4042969,0.29296875 C13.9029948,0.48828125 13.4570313,0.787760417 13.0664063,1.19140625 L10.546875,3.6328125 C9.921875,4.2578125 9.54427083,5 9.4140625,5.859375 C9.28385417,6.71875 9.40104167,7.52604167 9.765625,8.28125 L10.7421875,7.3046875 C10.5989583,6.82291667 10.5826823,6.33138021 10.6933594,5.83007812 C10.8040365,5.32877604 11.0481771,4.88932292 11.4257813,4.51171875 L13.9453125,2.0703125 C14.21875,1.80989583 14.5247396,1.60807292 14.8632813,1.46484375 C15.2018229,1.32161458 15.5598958,1.25 15.9375,1.25 C16.3151042,1.25 16.6731771,1.32161458 17.0117188,1.46484375 C17.3502604,1.60807292 17.65625,1.80989583 17.9296875,2.0703125 C18.4765625,2.6171875 18.75,3.28125 18.75,4.0625 C18.75,4.84375 18.4765625,5.50130208 17.9296875,6.03515625 L15.4101563,8.57421875 C15.1497396,8.83463542 14.8470052,9.03645833 14.5019531,9.1796875 C14.156901,9.32291667 13.7955729,9.39453125 13.4179688,9.39453125 C13.3268229,9.39453125 13.2356771,9.39453125 13.1445313,9.39453125 C13.0533854,9.39453125 12.9622396,9.38802083 12.8710938,9.375 L11.875,10.3710938 C12.1223958,10.4752604 12.3763021,10.546875 12.6367188,10.5859375 C12.8971354,10.625 13.1575521,10.6445312 13.4179688,10.6445312 C13.9388021,10.6445312 14.4498698,10.5436198 14.9511719,10.3417969 C15.452474,10.139974 15.8984375,9.84375 16.2890625,9.453125 L18.8085938,6.93359375 C19.2122396,6.52994792 19.5117188,6.08072917 19.7070312,5.5859375 C19.9023438,5.09114583 20,4.58333333 20,4.0625 C20,3.54166667 19.9023438,3.03059896 19.7070312,2.52929688 C19.5117188,2.02799479 19.2122396,1.58203125 18.8085938,1.19140625 Z" id="Shape"></path></g></g></g></g></svg>