<svg width="81px" height="10px" viewBox="0 0 81 10" xmlns="http://www.w3.org/2000/svg" xmlns:xlink="http://www.w3.org/1999/xlink"><title>logotype_white</title><g id="Final-UI" stroke="none" stroke-width="1" fill="none" fill-rule="evenodd"><g id="Drop---Step-5" transform="translate(-210.000000, -861.000000)" fill="#FFFFFF" fill-rule="nonzero"><g id="Group-3" transform="translate(123.000000, 855.000000)"><g id="logotype_white" transform="translate(87.000000, 6.000000)"><rect id="Rectangle" x="12" y="0" width="2" height="10" rx="0.0967578528"></rect><path d="M20.9437902,0 L18.076727,0 C18.0345707,0.000566565206 18.0005237,0.0373973886 18,0.0830006304 L18,9.91805001 C18.0005316,9.96347917 18.0347282,10 18.076727,10 L20.9437902,10 C24.1255311,10 26,8.14982139 26,4.99369615 C26,1.83757092 24.1002792,0 20.9437902,0 Z M20.8806604,8.08993486 L20.0007284,8.08993486 C19.9588897,8.08993486 19.9249727,8.0532446 19.9249727,8.00798487 L19.9249727,2.0014709 C19.9249727,1.9560381 19.9587331,1.91904537 20.0007284,1.91847027 L20.8806604,1.91847027 C22.9561734,1.91847027 24.0497754,3.04790922 24.0497754,5.00735449 C24.0497754,6.96679975 22.9687993,8.09518806 20.8806604,8.09518806 L20.8806604,8.08993486 Z" id="Shape"></path><path d="M34.9213245,8.09518261 L30.9760119,8.09518261 C30.9560125,8.0954636 30.9367438,8.08695382 30.9225111,8.07155467 C30.9082784,8.05615551 30.900268,8.03515041 30.9002696,8.01323267 L30.9002696,5.91195231 C30.9002696,5.86611235 30.9341806,5.82895173 30.9760119,5.82895173 L34.3010044,5.82895173 C34.3426197,5.82838517 34.3762297,5.79155437 34.3767467,5.74595116 L34.3767467,4.12376272 C34.3762297,4.0781595 34.3426197,4.04132871 34.3010044,4.04076214 L30.9760119,4.04076214 C30.9560125,4.04104314 30.9367438,4.03253336 30.9225111,4.01713421 C30.9082784,4.00173505 30.900268,3.98072995 30.9002696,3.95881221 L30.9002696,1.98781123 C30.9002696,1.94197127 30.9341806,1.90481065 30.9760119,1.90481065 L34.8225718,1.90481065 C34.8640316,1.90481429 34.8977894,1.86828984 34.8983142,1.82286072 L34.8983142,0.0830005744 C34.8977971,0.0373973633 34.8641871,0.000566564824 34.8225718,0 L29.0757423,0 C29.034127,0.000566564824 29.000517,0.0373973633 29,0.0830005744 L29,9.91804332 C29.0005248,9.96347245 29.0342826,10 29.0757423,10 L34.9242008,10 C34.9442002,10.0002743 34.9634689,9.99176447 34.9777016,9.97636532 C34.9919343,9.96096616 35,9.93996106 35,9.91804332 L35,8.1813351 C35.0007605,8.15822308 34.9927402,8.13578559 34.9778155,8.11943065 C34.9628908,8.10307572 34.9424154,8.09428693 34.9213245,8.09518261 L34.9213245,8.09518261 Z" id="Path"></path><path d="M43,2.10128178 C44.6983926,2.10128178 45.8849408,3.30111368 45.8849408,5.01996218 C45.8849408,6.71464593 44.6983926,7.89871822 43,7.89871822 C42.1624365,7.89871822 41.4433164,7.6234503 40.9187817,7.10338306 C40.394247,6.58331582 40.1150592,5.86047489 40.1150592,5.01996218 C40.1150592,4.17944946 40.392132,3.43559571 40.9208968,2.90502206 C41.4496616,2.37444841 42.1656091,2.10128178 43,2.10128178 M43,0 C40.1298646,0 38,2.11494011 38,5.01996218 C38,7.89766758 40.1298646,10 43,10 C45.8701354,10 48,7.89871822 48,5.01996218 C48,2.11494011 45.857445,0 43,0 Z" id="Shape"></path><path d="M65,2.10128178 C66.6983926,2.10128178 67.8849408,3.30111368 67.8849408,5.01996218 C67.8849408,6.71464593 66.6983926,7.89871822 65,7.89871822 C64.1624365,7.89871822 63.4422589,7.6234503 62.9187817,7.10338306 C62.3953046,6.58331582 62.1150592,5.86047489 62.1150592,5.01996218 C62.1150592,4.17944946 62.394247,3.43139315 62.9240694,2.9008195 C63.4538917,2.37024585 64.1677242,2.10128178 65,2.10128178 M65,0 C62.1288071,0 60,2.11494011 60,5.01996218 C60,7.89766758 62.1288071,10 65,10 C67.8711929,10 70,7.89871822 70,5.01996218 C70,2.11494011 67.857445,0 65,0 Z" id="Shape"></path><path d="M56.3415418,4.69321286 C56.3134634,4.68246529 56.2933341,4.65786819 56.2887015,4.62864443 C56.284069,4.59942066 56.2956331,4.56998568 56.3190578,4.55137634 C56.7623126,4.20676613 57.1820128,3.60579954 57.1820128,2.70750158 C57.1820128,1.02647615 55.9614561,0 53.9507495,0 L50.0835118,0 C50.0372168,0.000575098547 50,0.0375678338 50,0.0830006304 L50,9.91805001 C50,9.96330974 50.0373895,10 50.0835118,10 L54.6167024,10 C56.5021413,10 58,8.94935911 58,7.08867409 C58,5.76486657 57.2955032,5.06198781 56.3415418,4.69321286 Z M52.120985,1.97415423 C52.120985,1.92831425 52.1588539,1.8911536 52.2055675,1.8911536 L53.6734475,1.8911536 C54.5192719,1.8911536 55.0321199,2.29985291 55.0321199,2.9932759 C55.0321199,3.64677453 54.5192719,4.08173986 53.7152034,4.08173986 L52.2055675,4.08173986 C52.1588539,4.08173986 52.120985,4.04457921 52.120985,3.99873923 L52.120985,1.97415423 Z M54.369379,8.10885314 L52.2055675,8.10885314 C52.1832338,8.10912739 52.1617162,8.10061761 52.1458224,8.08521844 C52.1299285,8.06981928 52.120985,8.04881416 52.120985,8.02689641 L52.120985,5.81109477 C52.120985,5.76525479 52.1588539,5.72809414 52.2055675,5.72809414 L54.2976445,5.72809414 C55.2826552,5.72809414 55.8511777,6.14835049 55.8511777,6.91216642 C55.8511777,7.67598235 55.254818,8.10885314 54.3672377,8.10885314 L54.369379,8.10885314 Z" id="Shape"></path><path d="M80.9224159,0 L73.0775841,0 C73.0349569,0.000566565206 73.0005296,0.0373973886 73,0.0830006304 L73,1.75457029 C73.0005376,1.79999944 73.0351162,1.83652392 73.0775841,1.83652028 L75.9501596,1.83652028 C75.9926241,1.83709538 76.026765,1.87408811 76.0267616,1.91952091 L76.0267616,9.91805001 C76.0272992,9.96347917 76.0618778,10 76.1043457,10 L77.8956543,10 C77.9381222,10 77.9727008,9.96347917 77.9732384,9.91805001 L77.9732384,1.91952091 C77.9732384,1.87368093 78.007974,1.83652028 78.0508225,1.83652028 L80.9224159,1.83652028 C80.9429016,1.83680127 80.9626389,1.82829149 80.9772177,1.81289233 C80.9917965,1.79749316 81,1.77648804 81,1.75457029 L81,0.0830006304 C81,0.037160648 80.9652644,0 80.9224159,0 L80.9224159,0 Z" id="Path"></path><path d="M2.65095655,0.74201253 C2.43131463,0.289217237 1.96318467,0.000273152185 1.44879213,0 L0.0408423668,0 C0.0267615216,0 0.0136869438,0.00711057601 0.00622408633,0.0187341951 C-0.00123877116,0.0303578141 -0.00204288757,0.0448987853 0.00409498296,0.0572351263 L4.81065279,9.97628692 C4.81689572,9.99066003 4.83136957,10 4.84740018,10 C4.86343079,10 4.87790463,9.99066003 4.88414756,9.97628692 L5.9960184,7.68177159 C6.0013272,7.6707647 6.0013272,7.65802858 5.9960184,7.64702169 L2.65095655,0.74201253 Z" id="Path"></path><path d="M8.5,0 C8.10177159,0 7.71988672,0.158232078 7.43851511,0.439822649 C7.15714351,0.72141322 6.99938201,1.10324699 7,1.50116641 L7,3 L8.5,3 C9.32842753,3 10,2.32894934 10,1.50116641 C10,0.673383472 9.32842753,0.00233281493 8.5,0.00233281493 L8.5,0 Z" id="Path"></path></g></g></g></g></svg>